<svg width="64" height="25" viewBox="0 0 64 25" fill="none" xmlns="http://www.w3.org/2000/svg">
<g clip-path="url(#clip0_3034_24620)">
<path d="M8.72833 18.9372C8.72227 18.9074 8.71342 18.878 8.70178 18.8496C8.69014 18.8217 8.6757 18.7947 8.65893 18.7695C8.64216 18.744 8.6228 18.7203 8.60118 18.6987C8.57962 18.6771 8.5559 18.6578 8.53039 18.641C8.50502 18.6241 8.47803 18.6097 8.44981 18.5981C8.42187 18.5865 8.39253 18.5772 8.36272 18.5716C8.30278 18.5595 8.24102 18.5595 8.18108 18.5716C8.15127 18.5772 8.12193 18.5865 8.09352 18.5981C8.06557 18.6098 8.03856 18.6242 8.01341 18.641C7.98779 18.6577 7.96404 18.6773 7.94262 18.6987C7.92119 18.7202 7.90163 18.7439 7.88486 18.7695C7.86763 18.7947 7.85366 18.8217 7.84201 18.8496C7.83022 18.8778 7.82133 18.9072 7.81547 18.9372C7.80941 18.967 7.80615 18.9977 7.80615 19.028C7.80615 19.0583 7.80941 19.089 7.81547 19.1188C7.82106 19.1486 7.83037 19.178 7.84201 19.2059C7.85366 19.2343 7.86763 19.2614 7.88486 19.2865C7.90163 19.3121 7.92119 19.3359 7.94262 19.3573C7.96404 19.3787 7.98779 19.3983 8.01341 19.415C8.03856 19.4319 8.06557 19.4463 8.09352 19.4579C8.12193 19.4696 8.15127 19.4789 8.18108 19.4845C8.21089 19.4905 8.24162 19.4938 8.2719 19.4938C8.30217 19.4938 8.33291 19.4905 8.36272 19.4845C8.39253 19.4789 8.42187 19.4696 8.44981 19.4579C8.47822 19.4463 8.50524 19.4318 8.53039 19.415C8.5559 19.3983 8.57962 19.3789 8.60118 19.3573C8.6226 19.3359 8.64216 19.3121 8.65893 19.2865C8.6757 19.2614 8.69014 19.2343 8.70178 19.2059C8.72517 19.1495 8.73735 19.0891 8.73764 19.028C8.73764 18.9977 8.73438 18.967 8.72833 18.9372Z" fill="#52911B"/>
<path d="M22.1158 19.0798C22.114 19.0751 22.1122 19.0705 22.1102 19.0659C21.6815 18.0629 20.6762 17.6921 19.4864 18.0985L16.2416 18.9958C16.054 18.4277 15.5861 17.9443 14.9245 17.6987C14.9204 17.6972 14.9163 17.6957 14.9121 17.6943L11.3454 16.4838C11.0485 16.1 10.1186 15.1182 8.37753 15.1182C7.16077 15.1182 6.08439 15.9529 5.46858 16.8627H1.15764C0.900409 16.8627 0.691895 17.0712 0.691895 17.3284V23.2004C0.691895 23.4576 0.900409 23.6662 1.15764 23.6662H3.92682C4.18405 23.6662 4.39257 23.4576 4.39257 23.2004V22.7983H5.6912C5.94843 22.7983 6.15695 22.5898 6.15695 22.3325V22.1985C6.91397 22.2645 7.16296 22.4081 7.85822 22.8091C8.3929 23.1174 9.20101 23.5834 10.6563 24.2377C10.663 24.2407 10.6699 24.2436 10.6767 24.2463C10.956 24.3562 11.502 24.5288 12.1752 24.5288C12.6437 24.5288 13.174 24.4451 13.7182 24.1984L20.8903 21.6304C20.903 21.6259 20.9156 21.6207 20.9279 21.6151C21.6134 21.2997 22.6348 20.4109 22.1158 19.0798ZM3.46108 22.7346H1.62338V17.7941H3.46108V22.7346ZM5.22546 21.8668H4.39257V17.7941H5.22546V21.8668ZM20.5557 20.7608L13.3869 23.3275C13.3734 23.3324 13.3602 23.3378 13.3471 23.3437C12.3487 23.8026 11.3997 23.5279 11.0277 23.3833C9.622 22.7507 8.87173 22.3181 8.32355 22.002C7.5614 21.5625 7.19416 21.3507 6.15695 21.2651V17.5139C6.59843 16.7903 7.45456 16.0496 8.37757 16.0496C9.96046 16.0496 10.6312 17.0791 10.6575 17.1207C10.7144 17.2132 10.8018 17.2829 10.9046 17.3178L14.6061 18.5741C15.1973 18.796 15.5097 19.3022 15.3661 19.8071C15.3338 19.9219 15.2791 20.0291 15.2051 20.1225C15.1311 20.216 15.0393 20.2939 14.935 20.3516C14.7268 20.4683 14.4809 20.4977 14.2511 20.4335L10.0784 19.1111C9.83303 19.0334 9.57137 19.1692 9.49369 19.4144C9.41595 19.6596 9.55176 19.9214 9.79698 19.9991L13.977 21.3237C13.9814 21.3251 13.9858 21.3265 13.9903 21.3277C14.1548 21.3747 14.325 21.3986 14.496 21.3987C14.8051 21.3987 15.1109 21.3199 15.3884 21.1653C15.8175 20.9262 16.1278 20.5344 16.2621 20.0619C16.2728 20.0241 16.2823 19.9864 16.2905 19.9487L19.7875 18.9799C20.2925 18.8074 20.9555 18.7452 21.2507 19.4251C21.5563 20.2232 20.7622 20.6623 20.5557 20.7608ZM17.4149 6.81024C17.4089 6.78043 17.4 6.75109 17.3879 6.72268C17.3763 6.69473 17.3623 6.66772 17.3451 6.64257C17.3283 6.61706 17.309 6.59333 17.2873 6.57178C17.2658 6.55015 17.242 6.5308 17.2165 6.51402C17.1914 6.49726 17.1644 6.48282 17.1364 6.47118C17.1083 6.45945 17.0792 6.45056 17.0493 6.44463C16.9892 6.43252 16.9273 6.43252 16.8672 6.44463C16.8374 6.45022 16.8081 6.45953 16.7801 6.47118C16.7517 6.48282 16.7247 6.49726 16.6996 6.51402C16.6739 6.53079 16.6502 6.55035 16.6288 6.57178C16.6073 6.5932 16.5878 6.61695 16.571 6.64257C16.5542 6.66772 16.5398 6.69473 16.5282 6.72268C16.5164 6.75089 16.5075 6.78023 16.5016 6.81024C16.4956 6.84005 16.4923 6.87079 16.4923 6.90106C16.4923 6.93133 16.4956 6.96207 16.5016 6.99188C16.5072 7.02169 16.5165 7.05103 16.5282 7.07897C16.5398 7.10738 16.5542 7.1344 16.571 7.15955C16.5878 7.18516 16.6073 7.20892 16.6288 7.23034C16.6502 7.25177 16.6739 7.27133 16.6996 7.28809C16.7247 7.30486 16.7517 7.3193 16.7801 7.33094C16.8081 7.34259 16.8374 7.35143 16.8672 7.35749C16.897 7.36354 16.9278 7.3668 16.958 7.3668C16.9883 7.3668 17.0191 7.36354 17.0493 7.35749C17.0787 7.35143 17.108 7.34259 17.1364 7.33094C17.1644 7.3193 17.1914 7.30486 17.2165 7.28809C17.242 7.27132 17.2658 7.25197 17.2873 7.23034C17.3088 7.20892 17.3283 7.18516 17.3451 7.15955C17.3623 7.1344 17.3763 7.10738 17.3879 7.07897C17.4 7.05103 17.4089 7.02169 17.4149 6.99188C17.421 6.96207 17.4238 6.93133 17.4238 6.90106C17.4238 6.87079 17.421 6.84005 17.4149 6.81024Z" fill="#52911B"/>
<path d="M24.0723 2.26194H21.3031C21.0459 2.26194 20.8374 2.47046 20.8374 2.72769V3.12981H19.5387C19.2815 3.12981 19.073 3.33833 19.073 3.59556V3.7296C18.316 3.66351 18.067 3.51997 17.3717 3.11906C16.8371 2.81073 16.029 2.34475 14.5736 1.69043C14.5669 1.68737 14.5601 1.68449 14.5532 1.68181C14.0794 1.49542 12.8379 1.12869 11.5119 1.72964L9.63772 2.40069L8.05796 0.820975C7.87609 0.639102 7.58118 0.639102 7.39931 0.820975L2.21286 6.00737C2.0451 6.17518 2.01292 6.46613 2.21286 6.66608L11.0754 15.5286C11.2172 15.6705 11.5493 15.7134 11.7341 15.5286L16.4691 10.7937C16.5922 10.8043 16.7199 10.81 16.8523 10.81C18.0692 10.81 19.1455 9.97529 19.7613 9.0655H24.0723C24.3295 9.0655 24.538 8.85699 24.538 8.59976V2.72769C24.538 2.47046 24.3295 2.26194 24.0723 2.26194ZM7.72859 1.80896L8.79011 2.87049C8.47457 3.06563 8.10975 3.17005 7.72859 3.17005C7.34737 3.17005 6.9826 3.06568 6.66706 2.87049L7.72859 1.80896ZM4.26242 7.39828L3.20089 6.3367L4.26242 5.27518C4.45757 5.59072 4.56199 5.95554 4.56199 6.3367C4.56199 6.71787 4.45761 7.08269 4.26242 7.39828ZM11.4048 14.5406L10.3434 13.4792C10.9914 13.0793 11.818 13.0793 12.4661 13.4792L11.4048 14.5406ZM13.1371 12.8083C12.1079 12.0617 10.7016 12.0617 9.67242 12.8083L4.93342 8.06923C5.29712 7.56902 5.49348 6.96816 5.49348 6.3367C5.49348 5.7052 5.29716 5.10439 4.93342 4.60418L5.99611 3.54153C6.49632 3.90523 7.09713 4.10159 7.72863 4.10159C8.36014 4.10159 8.96095 3.90523 9.46116 3.54153L10.4685 4.54889C10.2483 4.58162 10.0359 4.65409 9.84153 4.76276C9.50769 4.94878 9.24575 5.22734 9.08265 5.56436C8.55476 5.66219 8.06896 5.91782 7.68937 6.29749C6.65425 7.33265 6.65425 9.01693 7.68942 10.0521C8.20695 10.5696 8.8868 10.8284 9.5667 10.8284C10.2465 10.8284 10.9264 10.5697 11.444 10.0521C11.7808 9.71536 12.0167 9.3015 12.1348 8.85047L13.7074 9.38417C13.5303 10.2043 13.7116 11.067 14.2007 11.7447L13.1371 12.8083ZM10.3055 8.2294C10.3096 8.23089 10.3137 8.23238 10.3178 8.23378L11.2491 8.54988C11.1788 8.86728 11.0196 9.15912 10.7854 9.39343C10.1134 10.0653 9.02 10.0654 8.34812 9.39343C7.67614 8.7215 7.67614 7.62817 8.34812 6.95619C8.50881 6.79539 8.69974 6.668 8.9099 6.58136C8.99588 7.29684 9.51104 7.93458 10.3055 8.2294ZM14.8718 11.0735C14.6926 10.7809 14.5903 10.4477 14.5742 10.105C14.8277 10.288 15.1038 10.4375 15.3956 10.5497L14.8718 11.0735ZM19.0729 8.41407C18.6315 9.13774 17.7754 9.87842 16.8523 9.87842C16.6797 9.87842 16.5178 9.86612 16.3665 9.84423L16.3647 9.84395C15.3588 9.69785 14.8178 9.12619 14.6395 8.89984C14.63 8.88587 14.5895 8.83291 14.5835 8.82411C14.5274 8.72358 14.4359 8.64751 14.3268 8.61066L10.6238 7.35384C10.0328 7.13205 9.72044 6.62602 9.86361 6.12134L9.86389 6.12036L9.86421 6.1192C9.89664 6.00478 9.95139 5.8979 10.0253 5.80473C10.0992 5.71156 10.1908 5.63393 10.2949 5.57633C10.503 5.45959 10.7489 5.43016 10.9787 5.4945L15.1515 6.81679C15.3968 6.89462 15.6585 6.75871 15.7362 6.5135C15.8139 6.26828 15.6781 6.00654 15.4329 5.9288L12.1142 4.87715L12.0853 4.84818L12.0844 4.8473L10.3662 3.12916L11.843 2.60035C11.848 2.59854 11.8542 2.59626 11.8591 2.59425L11.864 2.5923C11.8703 2.58974 11.8766 2.58704 11.8828 2.58419C12.8811 2.12534 13.8301 2.39999 14.2021 2.54465C15.6079 3.17718 16.3582 3.60981 16.9064 3.92591C17.6685 4.36544 18.0358 4.57721 19.0729 4.66286V8.41407ZM20.8374 8.13392H20.0045V4.0613H20.8374V8.13392ZM23.6065 8.13392H21.7688V3.19343H23.6065V8.13392Z" fill="#52911B"/>
</g>
<path d="M32.8047 10.1801C31.102 10.1801 29.75 8.82806 29.75 7.17553C29.75 5.52299 31.102 4.17091 32.8047 4.17091C33.4473 4.17926 34.1317 4.37956 34.5573 4.61326L34.307 5.13906C34.307 5.13906 33.6309 4.80522 32.8213 4.80522C31.4943 4.80522 30.4844 5.83179 30.4844 7.17553C30.4844 8.51926 31.4943 9.54583 32.8213 9.54583C33.6309 9.54583 34.307 9.21199 34.307 9.21199L34.5573 9.7378C34.1317 9.97149 33.4473 10.1718 32.8047 10.1801ZM35.5676 5.93195C35.9598 5.79841 36.5357 5.67322 37.1199 5.67322C38.1799 5.67322 38.7892 6.10722 38.7892 7.08372V9.31214C38.7892 9.46237 38.8977 9.49576 39.0229 9.49576C39.1063 9.49576 39.2566 9.47906 39.3484 9.47072V10.0049C39.3066 10.0299 38.9478 10.0967 38.7391 10.0967C38.4553 10.0967 38.1966 9.97149 38.1966 9.55418V9.42064C37.9128 9.97149 37.3453 10.1801 36.7527 10.1801C35.8597 10.1801 35.1503 9.71276 35.1503 8.76964C35.1586 7.85156 35.9932 7.4426 36.9864 7.4426C37.4538 7.4426 37.9963 7.53441 38.1382 7.55945V7.17553C38.1382 6.43272 37.6624 6.2491 37.0114 6.2491C36.6275 6.2491 36.06 6.32422 35.7094 6.42437L35.5676 5.93195ZM38.1382 8.11029C38.0297 8.07691 37.5623 7.9851 37.0532 7.9851C36.519 7.9851 35.7846 8.08526 35.7846 8.76964C35.7846 9.33718 36.302 9.62095 36.8195 9.62095C37.5206 9.62095 38.1382 9.10349 38.1382 8.51926V8.11029ZM41.5221 10.1801C40.746 10.1801 40.1784 9.91306 39.9614 9.81291L40.1784 9.29545C40.3787 9.38726 40.9129 9.59591 41.4971 9.59591C42.1982 9.59591 42.5237 9.32883 42.5237 8.94491C42.5237 7.92668 39.9948 8.48587 39.9948 6.90845C39.9948 6.16564 40.579 5.67322 41.5555 5.67322C42.1648 5.67322 42.7323 5.85683 42.9911 5.98203L42.7741 6.49949C42.7741 6.49949 42.1982 6.25745 41.5973 6.25745C41.0047 6.25745 40.6375 6.49949 40.6375 6.89176C40.6375 7.89329 43.1747 7.35914 43.1747 8.93656C43.1747 9.70441 42.5404 10.1801 41.5221 10.1801ZM44.1734 3.98729H44.8661V6.41603C45.0163 6.15729 45.467 5.67322 46.3016 5.67322C47.2698 5.67322 47.9458 6.27414 47.9458 7.52606V10.0967H47.2531V7.54276C47.2531 6.7916 46.8441 6.33256 46.1514 6.33256C45.275 6.33256 44.8661 7.06703 44.8661 7.68464V10.0967H44.1734V3.98729ZM51.1614 7.16718C51.1614 5.45622 52.5552 4.17091 54.1577 4.17091C55.8269 4.17091 57.1456 5.51464 57.1456 7.16718C57.1456 8.8698 55.7685 10.1801 54.1577 10.1801C52.5052 10.1801 51.1614 8.84476 51.1614 7.16718ZM51.8959 7.17553C51.8959 8.51926 52.8641 9.54583 54.1577 9.54583C55.4514 9.54583 56.4112 8.51926 56.4112 7.17553C56.4112 5.84849 55.443 4.80522 54.141 4.80522C52.8641 4.80522 51.8959 5.83179 51.8959 7.17553ZM58.2493 5.75668H58.7751L58.892 6.50783C58.9755 6.30753 59.4261 5.67322 60.3776 5.67322C61.3458 5.67322 62.0218 6.27414 62.0218 7.52606V10.0967H61.3291V7.54276C61.3291 6.7916 60.9201 6.33256 60.2274 6.33256C59.351 6.33256 58.9421 7.06703 58.9421 7.68464V10.0967H58.2493V5.75668Z" fill="#52911B"/>
<path d="M32.1036 19.1162H30.1005V13.2739H32.1036C32.4625 13.2739 32.9632 13.3657 33.439 13.6411C34.3737 14.192 34.7243 15.1852 34.7326 16.1951C34.7326 17.2049 34.3654 18.2148 33.439 18.749C32.9465 19.0244 32.4207 19.1162 32.1036 19.1162ZM30.8016 13.9332V18.4569H31.9867C32.2455 18.4569 32.6711 18.4068 33.1302 18.1481C33.7978 17.7641 34.0315 16.9963 34.0315 16.1867C34.0315 15.3521 33.7812 14.626 33.1302 14.2421C32.6628 13.9666 32.1703 13.9332 31.9867 13.9332H30.8016ZM35.6009 16.9629C35.6009 15.7026 36.4939 14.6927 37.7375 14.6927C39.0228 14.6927 39.7239 15.7694 39.7239 16.8794C39.7239 17.0881 39.6988 17.23 39.6988 17.23H36.3186C36.3771 18.0562 37.0281 18.5904 37.871 18.5904C38.3301 18.5904 38.7975 18.4652 39.1814 18.2983L39.4151 18.8241C39.0562 19.0077 38.472 19.1997 37.8543 19.1997C36.5356 19.1997 35.6009 18.2065 35.6009 16.9629ZM36.3186 16.6958H39.0729C39.0562 16.0031 38.6472 15.302 37.7792 15.302C36.9863 15.302 36.3938 15.8946 36.3186 16.6958ZM40.7259 13.0068H41.4186V18.2983C41.4186 18.4569 41.5188 18.4986 41.6273 18.4986C41.7441 18.4986 41.861 18.4819 41.9611 18.4736V19.0244C41.9027 19.0494 41.5939 19.1162 41.3602 19.1162C40.8594 19.1162 40.7259 18.7239 40.7259 18.4318V13.0068ZM42.576 14.7762H43.7194V19.1162H43.0267V15.3938L42.576 15.2603V14.7762ZM43.2854 13.1571C43.5358 13.1571 43.7528 13.3657 43.7528 13.6077C43.7528 13.8665 43.5358 14.0751 43.2854 14.0751C43.0267 14.0751 42.8347 13.8665 42.8347 13.6161C42.8347 13.3657 43.0267 13.1571 43.2854 13.1571ZM44.4952 14.7762H45.2046L46.4065 18.34H46.4232L47.6501 14.7762H48.3595L46.7487 19.1162H46.0726L44.4952 14.7762ZM48.8129 16.9629C48.8129 15.7026 49.7059 14.6927 50.9495 14.6927C52.2348 14.6927 52.9359 15.7694 52.9359 16.8794C52.9359 17.0881 52.9109 17.23 52.9109 17.23H49.5307C49.5891 18.0562 50.2401 18.5904 51.0831 18.5904C51.5421 18.5904 52.0095 18.4652 52.3934 18.2983L52.6271 18.8241C52.2682 19.0077 51.684 19.1997 51.0664 19.1997C49.7477 19.1997 48.8129 18.2065 48.8129 16.9629ZM49.5307 16.6958H52.2849C52.2682 16.0031 51.8593 15.302 50.9913 15.302C50.1984 15.302 49.6058 15.8946 49.5307 16.6958ZM53.9212 14.8012H54.447L54.5472 15.5691C54.8309 15.0182 55.315 14.7762 55.9911 14.7762V15.4606C55.2316 15.4606 54.5972 15.8111 54.5972 16.7542V19.1162H53.9212V14.8012ZM56.362 14.7762H57.0798L58.4235 18.3734H58.4485L59.7923 14.7762H60.5184L58.7156 19.2915C58.4485 19.9508 58.1314 20.5351 57.4303 20.5351C57.1716 20.5351 56.9128 20.4933 56.6458 20.4015L56.7793 19.7756C56.9462 19.8256 57.23 19.8757 57.3969 19.8674C57.7725 19.8674 57.9478 19.4584 58.0813 19.0995L56.362 14.7762Z" fill="#52911B"/>
<defs>
<clipPath id="clip0_3034_24620">
<rect width="23.8462" height="23.8462" fill="white" transform="translate(0.692383 0.683594)"/>
</clipPath>
</defs>
</svg>
