<svg width="24" height="24" viewBox="0 0 24 24" fill="none" xmlns="http://www.w3.org/2000/svg">
<path d="M8.38064 8.85323C9.07664 10.3028 10.0254 11.6615 11.227 12.8631C12.4286 14.0646 13.7872 15.0134 15.2368 15.7094C15.3615 15.7693 15.4239 15.7992 15.5028 15.8222C15.7831 15.904 16.1274 15.8453 16.3648 15.6752C16.4316 15.6274 16.4888 15.5702 16.6031 15.4559C16.9527 15.1063 17.1275 14.9315 17.3033 14.8172C17.9662 14.3862 18.8208 14.3862 19.4836 14.8172C19.6594 14.9315 19.8342 15.1063 20.1838 15.4559L20.3787 15.6508C20.9101 16.1822 21.1759 16.448 21.3202 16.7333C21.6073 17.3009 21.6073 17.9712 21.3202 18.5387C21.1759 18.8241 20.9101 19.0898 20.3787 19.6213L20.2211 19.7789C19.6914 20.3085 19.4266 20.5733 19.0666 20.7756C18.6671 21 18.0466 21.1614 17.5884 21.16C17.1754 21.1588 16.8932 21.0787 16.3288 20.9185C13.2954 20.0575 10.433 18.433 8.04503 16.045C5.65705 13.6571 4.03257 10.7947 3.1716 7.76131C3.01139 7.19687 2.93129 6.91464 2.93006 6.5017C2.9287 6.04347 3.09006 5.42298 3.31448 5.02348C3.51673 4.66345 3.78154 4.39863 4.31116 3.86901L4.4688 3.71138C5.00024 3.17993 5.26596 2.91421 5.55134 2.76987C6.1189 2.4828 6.78917 2.4828 7.35673 2.76987C7.64211 2.91421 7.90783 3.17993 8.43927 3.71138L8.63414 3.90625C8.98375 4.25585 9.15855 4.43065 9.27284 4.60643C9.70383 5.26932 9.70383 6.1239 9.27284 6.78679C9.15855 6.96257 8.98375 7.13738 8.63414 7.48698C8.51983 7.60129 8.46268 7.65845 8.41483 7.72526C8.24482 7.96269 8.18612 8.30695 8.26785 8.5873C8.29084 8.6662 8.32078 8.72854 8.38064 8.85323Z" stroke="black" stroke-width="2" stroke-linecap="round" stroke-linejoin="round"/>
</svg>
